solid ascii
  facet normal 1.000000e+000 0.000000e+000 0.000000e+000
    outer loop
      vertex   -9.917719e+000 3.353191e+001 1.000000e+000
      vertex   -9.917719e+000 2.635312e+001 1.000000e+000
      vertex   -9.917719e+000 3.353191e+001 9.808924e-001
    endloop
  endfacet
  facet normal 1.000000e+000 0.000000e+000 0.000000e+000
    outer loop
      vertex   -9.917719e+000 3.353191e+001 9.808924e-001
      vertex   -9.917719e+000 2.635312e+001 1.000000e+000
      vertex   -9.917719e+000 2.635312e+001 9.808924e-001
    endloop
  endfacet
  facet normal 0.000000e+000 -1.000000e+000 0.000000e+000
    outer loop
      vertex   -9.917719e+000 3.353191e+001 1.000000e+000
      vertex   -9.917719e+000 3.353191e+001 9.808924e-001
      vertex   -6.872493e+000 3.353191e+001 1.000000e+000
    endloop
  endfacet
  facet normal 0.000000e+000 -1.000000e+000 -0.000000e+000
    outer loop
      vertex   -6.872493e+000 3.353191e+001 1.000000e+000
      vertex   -9.917719e+000 3.353191e+001 9.808924e-001
      vertex   -3.017719e+000 3.353191e+001 9.808924e-001
    endloop
  endfacet
  facet normal -0.000000e+000 -1.000000e+000 -0.000000e+000
    outer loop
      vertex   -3.017719e+000 3.353191e+001 1.000000e+000
      vertex   -6.872493e+000 3.353191e+001 1.000000e+000
      vertex   -3.017719e+000 3.353191e+001 9.808924e-001
    endloop
  endfacet
  facet normal -0.000000e+000 -1.000000e+000 0.000000e+000
    outer loop
      vertex   -3.017719e+000 3.353191e+001 1.000000e+000
      vertex   -6.872493e+000 3.353191e+001 3.447278e+000
      vertex   -6.872493e+000 3.353191e+001 1.000000e+000
    endloop
  endfacet
  facet normal 0.000000e+000 -1.000000e+000 0.000000e+000
    outer loop
      vertex   -3.017719e+000 3.353191e+001 1.000000e+000
      vertex   -3.017719e+000 3.353191e+001 3.447278e+000
      vertex   -6.872493e+000 3.353191e+001 3.447278e+000
    endloop
  endfacet
  facet normal 0.000000e+000 -0.000000e+000 1.000000e+000
    outer loop
      vertex   -3.017719e+000 2.635312e+001 9.808924e-001
      vertex   -3.017719e+000 3.353191e+001 9.808924e-001
      vertex   -9.917719e+000 2.635312e+001 9.808924e-001
    endloop
  endfacet
  facet normal 0.000000e+000 -0.000000e+000 1.000000e+000
    outer loop
      vertex   -9.917719e+000 2.635312e+001 9.808924e-001
      vertex   -3.017719e+000 3.353191e+001 9.808924e-001
      vertex   -9.917719e+000 3.353191e+001 9.808924e-001
    endloop
  endfacet
  facet normal 0.000000e+000 0.000000e+000 -1.000000e+000
    outer loop
      vertex   -6.872493e+000 2.635312e+001 3.447278e+000
      vertex   -6.872493e+000 3.353191e+001 3.447278e+000
      vertex   -3.017719e+000 2.635312e+001 3.447278e+000
    endloop
  endfacet
  facet normal 0.000000e+000 0.000000e+000 -1.000000e+000
    outer loop
      vertex   -3.017719e+000 2.635312e+001 3.447278e+000
      vertex   -6.872493e+000 3.353191e+001 3.447278e+000
      vertex   -3.017719e+000 3.353191e+001 3.447278e+000
    endloop
  endfacet
  facet normal -0.000000e+000 1.000000e+000 0.000000e+000
    outer loop
      vertex   -9.917719e+000 2.635312e+001 1.000000e+000
      vertex   -6.872493e+000 2.635312e+001 1.000000e+000
      vertex   -9.917719e+000 2.635312e+001 9.808924e-001
    endloop
  endfacet
  facet normal -0.000000e+000 1.000000e+000 0.000000e+000
    outer loop
      vertex   -9.917719e+000 2.635312e+001 9.808924e-001
      vertex   -6.872493e+000 2.635312e+001 1.000000e+000
      vertex   -3.017719e+000 2.635312e+001 9.808924e-001
    endloop
  endfacet
  facet normal 0.000000e+000 1.000000e+000 -0.000000e+000
    outer loop
      vertex   -3.017719e+000 2.635312e+001 9.808924e-001
      vertex   -6.872493e+000 2.635312e+001 1.000000e+000
      vertex   -3.017719e+000 2.635312e+001 1.000000e+000
    endloop
  endfacet
  facet normal 0.000000e+000 1.000000e+000 -0.000000e+000
    outer loop
      vertex   -3.017719e+000 2.635312e+001 1.000000e+000
      vertex   -6.872493e+000 2.635312e+001 1.000000e+000
      vertex   -6.872493e+000 2.635312e+001 3.447278e+000
    endloop
  endfacet
  facet normal 0.000000e+000 1.000000e+000 0.000000e+000
    outer loop
      vertex   -3.017719e+000 2.635312e+001 3.447278e+000
      vertex   -3.017719e+000 2.635312e+001 1.000000e+000
      vertex   -6.872493e+000 2.635312e+001 3.447278e+000
    endloop
  endfacet
  facet normal -1.000000e+000 0.000000e+000 -2.849700e-006
    outer loop
      vertex   -3.017719e+000 2.635312e+001 1.000000e+000
      vertex   -3.017719e+000 3.353191e+001 1.000000e+000
      vertex   -3.017719e+000 2.635312e+001 9.808924e-001
    endloop
  endfacet
  facet normal -1.000000e+000 0.000000e+000 -2.849700e-006
    outer loop
      vertex   -3.017719e+000 2.635312e+001 9.808924e-001
      vertex   -3.017719e+000 3.353191e+001 1.000000e+000
      vertex   -3.017719e+000 3.353191e+001 9.808924e-001
    endloop
  endfacet
  facet normal 1.000000e+000 -1.470130e-015 -2.224957e-008
    outer loop
      vertex   -3.017719e+000 2.635312e+001 1.000000e+000
      vertex   -3.017719e+000 2.635312e+001 3.447278e+000
      vertex   -3.017719e+000 2.500000e+001 1.000000e+000
    endloop
  endfacet
  facet normal 1.000000e+000 0.000000e+000 -2.224957e-008
    outer loop
      vertex   -3.017719e+000 2.500000e+001 1.000000e+000
      vertex   -3.017719e+000 2.635312e+001 3.447278e+000
      vertex   -3.017719e+000 2.497415e+001 1.000000e+000
    endloop
  endfacet
  facet normal 1.000000e+000 -3.948670e-008 0.000000e+000
    outer loop
      vertex   -3.017719e+000 2.497415e+001 1.000000e+000
      vertex   -3.017719e+000 2.635312e+001 3.447278e+000
      vertex   -3.017719e+000 2.497415e+001 5.000000e+000
    endloop
  endfacet
  facet normal 1.000000e+000 -0.000000e+000 3.506801e-008
    outer loop
      vertex   -3.017719e+000 2.497415e+001 5.000000e+000
      vertex   -3.017719e+000 2.635312e+001 3.447278e+000
      vertex   -3.017719e+000 3.353191e+001 3.447278e+000
    endloop
  endfacet
  facet normal 1.000000e+000 3.736310e-008 0.000000e+000
    outer loop
      vertex   -3.017719e+000 3.498925e+001 5.000000e+000
      vertex   -3.017719e+000 3.353191e+001 3.447278e+000
      vertex   -3.017719e+000 3.498925e+001 1.000000e+000
    endloop
  endfacet
  facet normal 1.000000e+000 0.000000e+000 3.506801e-008
    outer loop
      vertex   -3.017719e+000 3.498925e+001 5.000000e+000
      vertex   -3.017719e+000 2.497415e+001 5.000000e+000
      vertex   -3.017719e+000 3.353191e+001 3.447278e+000
    endloop
  endfacet
  facet normal 1.000000e+000 1.364995e-015 -2.224957e-008
    outer loop
      vertex   -3.017719e+000 3.353191e+001 3.447278e+000
      vertex   -3.017719e+000 3.353191e+001 1.000000e+000
      vertex   -3.017719e+000 3.498925e+001 1.000000e+000
    endloop
  endfacet
  facet normal 0.000000e+000 6.607456e-008 1.000000e+000
    outer loop
      vertex   -6.872493e+000 2.635312e+001 1.000000e+000
      vertex   -9.917719e+000 2.635312e+001 1.000000e+000
      vertex   -6.872493e+000 2.500000e+001 1.000000e+000
    endloop
  endfacet
  facet normal -2.858730e-008 1.738348e-009 1.000000e+000
    outer loop
      vertex   -6.872493e+000 2.500000e+001 1.000000e+000
      vertex   -9.917719e+000 2.635312e+001 1.000000e+000
      vertex   -1.000000e+001 2.500000e+001 1.000000e+000
    endloop
  endfacet
  facet normal 0.000000e+000 0.000000e+000 1.000000e+000
    outer loop
      vertex   -1.000000e+001 2.500000e+001 1.000000e+000
      vertex   -9.917719e+000 2.635312e+001 1.000000e+000
      vertex   -9.917719e+000 3.353191e+001 1.000000e+000
    endloop
  endfacet
  facet normal -2.859281e-008 -1.602520e-009 1.000000e+000
    outer loop
      vertex   -1.000000e+001 3.500000e+001 1.000000e+000
      vertex   -9.917719e+000 3.353191e+001 1.000000e+000
      vertex   -6.872493e+000 3.498925e+001 1.000000e+000
    endloop
  endfacet
  facet normal -0.000000e+000 8.316293e-006 1.000000e+000
    outer loop
      vertex   0.000000e+000 3.500000e+001 1.000000e+000
      vertex   -6.872493e+000 3.498925e+001 1.000000e+000
      vertex   -3.017719e+000 3.498925e+001 1.000000e+000
    endloop
  endfacet
  facet normal 2.984590e-008 -6.134927e-008 1.000000e+000
    outer loop
      vertex   -3.017719e+000 3.353191e+001 1.000000e+000
      vertex   0.000000e+000 3.500000e+001 1.000000e+000
      vertex   -3.017719e+000 3.498925e+001 1.000000e+000
    endloop
  endfacet
  facet normal -0.000000e+000 0.000000e+000 1.000000e+000
    outer loop
      vertex   -3.017719e+000 3.353191e+001 1.000000e+000
      vertex   0.000000e+000 2.500000e+001 1.000000e+000
      vertex   0.000000e+000 3.500000e+001 1.000000e+000
    endloop
  endfacet
  facet normal 0.000000e+000 0.000000e+000 1.000000e+000
    outer loop
      vertex   -3.017719e+000 3.353191e+001 1.000000e+000
      vertex   -3.017719e+000 2.635312e+001 1.000000e+000
      vertex   0.000000e+000 2.500000e+001 1.000000e+000
    endloop
  endfacet
  facet normal 2.962733e-008 6.607456e-008 1.000000e+000
    outer loop
      vertex   0.000000e+000 2.500000e+001 1.000000e+000
      vertex   -3.017719e+000 2.635312e+001 1.000000e+000
      vertex   -3.017719e+000 2.500000e+001 1.000000e+000
    endloop
  endfacet
  facet normal 0.000000e+000 -6.134927e-008 1.000000e+000
    outer loop
      vertex   -9.917719e+000 3.353191e+001 1.000000e+000
      vertex   -6.872493e+000 3.353191e+001 1.000000e+000
      vertex   -6.872493e+000 3.498925e+001 1.000000e+000
    endloop
  endfacet
  facet normal 0.000000e+000 8.316293e-006 1.000000e+000
    outer loop
      vertex   -1.000000e+001 3.500000e+001 1.000000e+000
      vertex   -6.872493e+000 3.498925e+001 1.000000e+000
      vertex   0.000000e+000 3.500000e+001 1.000000e+000
    endloop
  endfacet
  facet normal -0.000000e+000 0.000000e+000 1.000000e+000
    outer loop
      vertex   -1.000000e+001 3.500000e+001 1.000000e+000
      vertex   -1.000000e+001 2.500000e+001 1.000000e+000
      vertex   -9.917719e+000 3.353191e+001 1.000000e+000
    endloop
  endfacet
  facet normal 0.000000e+000 1.000000e+000 -0.000000e+000
    outer loop
      vertex   -3.017719e+000 3.498925e+001 1.000000e+000
      vertex   -6.872493e+000 3.498925e+001 1.000000e+000
      vertex   -3.017719e+000 3.498925e+001 5.000000e+000
    endloop
  endfacet
  facet normal 0.000000e+000 1.000000e+000 -0.000000e+000
    outer loop
      vertex   -3.017719e+000 3.498925e+001 5.000000e+000
      vertex   -6.872493e+000 3.498925e+001 1.000000e+000
      vertex   -6.872493e+000 3.498925e+001 5.000000e+000
    endloop
  endfacet
  facet normal 0.000000e+000 -1.000000e+000 0.000000e+000
    outer loop
      vertex   -6.872493e+000 2.497415e+001 1.000000e+000
      vertex   -3.017719e+000 2.497415e+001 1.000000e+000
      vertex   -6.872493e+000 2.497415e+001 5.000000e+000
    endloop
  endfacet
  facet normal 0.000000e+000 -1.000000e+000 0.000000e+000
    outer loop
      vertex   -6.872493e+000 2.497415e+001 5.000000e+000
      vertex   -3.017719e+000 2.497415e+001 1.000000e+000
      vertex   -3.017719e+000 2.497415e+001 5.000000e+000
    endloop
  endfacet
  facet normal -1.000000e+000 -6.563918e-016 3.629250e-016
    outer loop
      vertex   -6.872493e+000 2.635312e+001 1.000000e+000
      vertex   -6.872493e+000 2.500000e+001 1.000000e+000
      vertex   -6.872493e+000 2.635312e+001 3.447278e+000
    endloop
  endfacet
  facet normal -1.000000e+000 -0.000000e+000 0.000000e+000
    outer loop
      vertex   -6.872493e+000 2.635312e+001 3.447278e+000
      vertex   -6.872493e+000 2.500000e+001 1.000000e+000
      vertex   -6.872493e+000 2.497415e+001 1.000000e+000
    endloop
  endfacet
  facet normal -1.000000e+000 0.000000e+000 -0.000000e+000
    outer loop
      vertex   -6.872493e+000 2.497415e+001 5.000000e+000
      vertex   -6.872493e+000 2.635312e+001 3.447278e+000
      vertex   -6.872493e+000 2.497415e+001 1.000000e+000
    endloop
  endfacet
  facet normal -1.000000e+000 -0.000000e+000 -0.000000e+000
    outer loop
      vertex   -6.872493e+000 2.497415e+001 5.000000e+000
      vertex   -6.872493e+000 3.353191e+001 3.447278e+000
      vertex   -6.872493e+000 2.635312e+001 3.447278e+000
    endloop
  endfacet
  facet normal -1.000000e+000 0.000000e+000 -0.000000e+000
    outer loop
      vertex   -6.872493e+000 2.497415e+001 5.000000e+000
      vertex   -6.872493e+000 3.498925e+001 5.000000e+000
      vertex   -6.872493e+000 3.353191e+001 3.447278e+000
    endloop
  endfacet
  facet normal -1.000000e+000 0.000000e+000 0.000000e+000
    outer loop
      vertex   -6.872493e+000 3.353191e+001 3.447278e+000
      vertex   -6.872493e+000 3.498925e+001 5.000000e+000
      vertex   -6.872493e+000 3.498925e+001 1.000000e+000
    endloop
  endfacet
  facet normal -1.000000e+000 6.094502e-016 3.629250e-016
    outer loop
      vertex   -6.872493e+000 3.353191e+001 1.000000e+000
      vertex   -6.872493e+000 3.353191e+001 3.447278e+000
      vertex   -6.872493e+000 3.498925e+001 1.000000e+000
    endloop
  endfacet
  facet normal 0.000000e+000 -0.000000e+000 1.000000e+000
    outer loop
      vertex   -6.872493e+000 2.497415e+001 5.000000e+000
      vertex   -3.017719e+000 2.497415e+001 5.000000e+000
      vertex   -6.872493e+000 3.498925e+001 5.000000e+000
    endloop
  endfacet
  facet normal -0.000000e+000 0.000000e+000 1.000000e+000
    outer loop
      vertex   -6.872493e+000 3.498925e+001 5.000000e+000
      vertex   -3.017719e+000 2.497415e+001 5.000000e+000
      vertex   -3.017719e+000 3.498925e+001 5.000000e+000
    endloop
  endfacet
  facet normal 0.000000e+000 -0.000000e+000 -1.000000e+000
    outer loop
      vertex   -6.872493e+000 2.500000e+001 1.000000e+000
      vertex   -3.017719e+000 2.500000e+001 1.000000e+000
      vertex   -6.872493e+000 2.497415e+001 1.000000e+000
    endloop
  endfacet
  facet normal 0.000000e+000 0.000000e+000 -1.000000e+000
    outer loop
      vertex   -6.872493e+000 2.497415e+001 1.000000e+000
      vertex   -3.017719e+000 2.500000e+001 1.000000e+000
      vertex   -3.017719e+000 2.497415e+001 1.000000e+000
    endloop
  endfacet
  facet normal 1.000000e+000 0.000000e+000 -0.000000e+000
    outer loop
      vertex   0.000000e+000 2.500000e+001 0.000000e+000
      vertex   0.000000e+000 3.500000e+001 0.000000e+000
      vertex   0.000000e+000 2.500000e+001 1.000000e+000
    endloop
  endfacet
  facet normal 1.000000e+000 -0.000000e+000 0.000000e+000
    outer loop
      vertex   0.000000e+000 2.500000e+001 1.000000e+000
      vertex   0.000000e+000 3.500000e+001 0.000000e+000
      vertex   0.000000e+000 3.500000e+001 1.000000e+000
    endloop
  endfacet
  facet normal 0.000000e+000 -1.000000e+000 0.000000e+000
    outer loop
      vertex   -1.000000e+001 2.500000e+001 1.000000e+000
      vertex   -1.000000e+001 2.500000e+001 0.000000e+000
      vertex   -6.872493e+000 2.500000e+001 1.000000e+000
    endloop
  endfacet
  facet normal 0.000000e+000 -1.000000e+000 -0.000000e+000
    outer loop
      vertex   -6.872493e+000 2.500000e+001 1.000000e+000
      vertex   -1.000000e+001 2.500000e+001 0.000000e+000
      vertex   0.000000e+000 2.500000e+001 0.000000e+000
    endloop
  endfacet
  facet normal 0.000000e+000 -1.000000e+000 0.000000e+000
    outer loop
      vertex   -3.017719e+000 2.500000e+001 1.000000e+000
      vertex   0.000000e+000 2.500000e+001 0.000000e+000
      vertex   0.000000e+000 2.500000e+001 1.000000e+000
    endloop
  endfacet
  facet normal -0.000000e+000 -1.000000e+000 -0.000000e+000
    outer loop
      vertex   -3.017719e+000 2.500000e+001 1.000000e+000
      vertex   -6.872493e+000 2.500000e+001 1.000000e+000
      vertex   0.000000e+000 2.500000e+001 0.000000e+000
    endloop
  endfacet
  facet normal -1.000000e+000 0.000000e+000 0.000000e+000
    outer loop
      vertex   -1.000000e+001 3.500000e+001 0.000000e+000
      vertex   -1.000000e+001 2.500000e+001 0.000000e+000
      vertex   -1.000000e+001 3.500000e+001 1.000000e+000
    endloop
  endfacet
  facet normal -1.000000e+000 -0.000000e+000 0.000000e+000
    outer loop
      vertex   -1.000000e+001 3.500000e+001 1.000000e+000
      vertex   -1.000000e+001 2.500000e+001 0.000000e+000
      vertex   -1.000000e+001 2.500000e+001 1.000000e+000
    endloop
  endfacet
  facet normal 0.000000e+000 1.000000e+000 -0.000000e+000
    outer loop
      vertex   0.000000e+000 3.500000e+001 0.000000e+000
      vertex   -1.000000e+001 3.500000e+001 0.000000e+000
      vertex   0.000000e+000 3.500000e+001 1.000000e+000
    endloop
  endfacet
  facet normal 0.000000e+000 1.000000e+000 -0.000000e+000
    outer loop
      vertex   0.000000e+000 3.500000e+001 1.000000e+000
      vertex   -1.000000e+001 3.500000e+001 0.000000e+000
      vertex   -1.000000e+001 3.500000e+001 1.000000e+000
    endloop
  endfacet
  facet normal 0.000000e+000 -0.000000e+000 -1.000000e+000
    outer loop
      vertex   -1.000000e+001 3.500000e+001 0.000000e+000
      vertex   0.000000e+000 3.500000e+001 0.000000e+000
      vertex   -1.000000e+001 2.500000e+001 0.000000e+000
    endloop
  endfacet
  facet normal 0.000000e+000 0.000000e+000 -1.000000e+000
    outer loop
      vertex   -1.000000e+001 2.500000e+001 0.000000e+000
      vertex   0.000000e+000 3.500000e+001 0.000000e+000
      vertex   0.000000e+000 2.500000e+001 0.000000e+000
    endloop
  endfacet
endsolid
